<svg width="77" height="73" viewBox="0 0 77 73" fill="none" xmlns="http://www.w3.org/2000/svg">
<rect x="1" y="1" width="75" height="71" stroke="#58CDFF" stroke-width="2"/>
<path d="M50.3333 30H54.1111C55.1543 30 56 30.8315 56 31.8571V54.1429C56 55.1686 55.1543 56 54.1111 56H23.8889C22.8457 56 22 55.1686 22 54.1429V31.8571C22 30.8315 22.8457 30 23.8889 30H27.6667V28.1429C27.6667 21.9888 32.7408 17 39 17C45.2592 17 50.3333 21.9888 50.3333 28.1429V30ZM25.7778 33.7143V52.2857H52.2222V33.7143H25.7778ZM37.1111 41.1429H40.8889V44.8571H37.1111V41.1429ZM29.5556 41.1429H33.3333V44.8571H29.5556V41.1429ZM44.6667 41.1429H48.4444V44.8571H44.6667V41.1429ZM46.5556 30V28.1429C46.5556 24.0402 43.1727 20.7143 39 20.7143C34.8272 20.7143 31.4444 24.0402 31.4444 28.1429V30H46.5556Z" fill="#58CDFF"/>
</svg>
